<svg width="33" height="32" viewBox="0 0 33 32" fill="none" xmlns="http://www.w3.org/2000/svg">
<mask id="mask0_244_2587" style="mask-type:alpha" maskUnits="userSpaceOnUse" x="0" y="0" width="33" height="32">
<rect x="0.5" width="32" height="32" fill="#D9D9D9"/>
</mask>
<g mask="url(#mask0_244_2587)">
<path d="M15.6003 22.6667H17.6003V17.1334H23.167V15.1334H17.6003V9.33335H15.6003V15.1334H9.83366V17.1334H15.6003V22.6667ZM16.5093 29.3334C14.6707 29.3334 12.9429 28.9834 11.326 28.2834C9.70888 27.5834 8.29477 26.6278 7.08366 25.4167C5.87255 24.2056 4.91699 22.7907 4.21699 21.172C3.51699 19.5534 3.16699 17.8238 3.16699 15.9834C3.16699 14.1429 3.51699 12.4134 4.21699 10.7947C4.91699 9.17602 5.87255 7.76669 7.08366 6.56669C8.29477 5.36669 9.70966 4.41669 11.3283 3.71669C12.947 3.01669 14.6765 2.66669 16.517 2.66669C18.3574 2.66669 20.087 3.01669 21.7057 3.71669C23.3243 4.41669 24.7337 5.36669 25.9337 6.56669C27.1337 7.76669 28.0837 9.1778 28.7837 10.8C29.4837 12.4222 29.8337 14.1526 29.8337 15.991C29.8337 17.8297 29.4837 19.5575 28.7837 21.1744C28.0837 22.7915 27.1337 24.2036 25.9337 25.4107C24.7337 26.6176 23.3225 27.5731 21.7003 28.2774C20.0781 28.9814 18.3478 29.3334 16.5093 29.3334ZM16.517 27.3334C19.6614 27.3334 22.3337 26.2278 24.5337 24.0167C26.7337 21.8056 27.8337 19.1278 27.8337 15.9834C27.8337 12.8389 26.7358 10.1667 24.54 7.96669C22.3442 5.76669 19.6643 4.66669 16.5003 4.66669C13.367 4.66669 10.6948 5.76458 8.48366 7.96035C6.27255 10.1561 5.16699 12.836 5.16699 16C5.16699 19.1334 6.27255 21.8056 8.48366 24.0167C10.6948 26.2278 13.3725 27.3334 16.517 27.3334Z" fill="#161616"/>
</g>
</svg>
