<svg width="28" height="40" viewBox="0 0 32 47" fill="none" xmlns="http://www.w3.org/2000/svg">
<mask id="path-1-inside-1_529_3016" fill="white">
<path fill-rule="evenodd" clip-rule="evenodd" d="M17.5849 44.7392C21.6265 38.8708 32 23.1152 32 16C32 7.16344 24.8366 0 16 0C7.16344 0 0 7.16344 0 16C0 23.1152 10.3735 38.8708 14.4151 44.7392C15.1886 45.8624 16.8114 45.8624 17.5849 44.7392ZM16 24C20.4183 24 24 20.4183 24 16C24 11.5817 20.4183 8 16 8C11.5817 8 8 11.5817 8 16C8 20.4183 11.5817 24 16 24Z"/>
</mask>
<path fill-rule="evenodd" clip-rule="evenodd" d="M17.5849 44.7392C21.6265 38.8708 32 23.1152 32 16C32 7.16344 24.8366 0 16 0C7.16344 0 0 7.16344 0 16C0 23.1152 10.3735 38.8708 14.4151 44.7392C15.1886 45.8624 16.8114 45.8624 17.5849 44.7392ZM16 24C20.4183 24 24 20.4183 24 16C24 11.5817 20.4183 8 16 8C11.5817 8 8 11.5817 8 16C8 20.4183 11.5817 24 16 24Z" fill="#CCCCCC"/>
<path d="M17.5849 44.7392L17.1732 44.4556L17.5849 44.7392ZM14.4151 44.7392L14.8268 44.4556H14.8268L14.4151 44.7392ZM31.5 16C31.5 17.6792 30.8823 19.9245 29.8522 22.48C28.8273 25.0227 27.4152 27.8225 25.8713 30.5938C22.7839 36.1355 19.1903 41.5266 17.1732 44.4556L17.9967 45.0228C20.0211 42.0833 23.6351 36.6624 26.7448 31.0805C28.2995 28.2899 29.7333 25.4499 30.7797 22.8539C31.821 20.2707 32.5 17.8784 32.5 16H31.5ZM16 0.5C24.5604 0.5 31.5 7.43959 31.5 16H32.5C32.5 6.8873 25.1127 -0.5 16 -0.5V0.5ZM0.5 16C0.5 7.43959 7.43959 0.5 16 0.5V-0.5C6.8873 -0.5 -0.5 6.8873 -0.5 16H0.5ZM14.8268 44.4556C12.8097 41.5266 9.21608 36.1355 6.12873 30.5938C4.58484 27.8225 3.17266 25.0227 2.14775 22.48C1.11766 19.9245 0.5 17.6792 0.5 16H-0.5C-0.5 17.8784 0.179023 20.2707 1.22026 22.8539C2.26669 25.4499 3.70048 28.2899 5.25515 31.0805C8.36494 36.6624 11.9789 42.0833 14.0033 45.0228L14.8268 44.4556ZM17.1732 44.4556C16.5983 45.2903 15.4017 45.2903 14.8268 44.4556L14.0033 45.0228C14.9755 46.4346 17.0245 46.4346 17.9967 45.0228L17.1732 44.4556ZM23.5 16C23.5 20.1421 20.1421 23.5 16 23.5V24.5C20.6944 24.5 24.5 20.6944 24.5 16H23.5ZM16 8.5C20.1421 8.5 23.5 11.8579 23.5 16H24.5C24.5 11.3056 20.6944 7.5 16 7.5V8.5ZM8.5 16C8.5 11.8579 11.8579 8.5 16 8.5V7.5C11.3056 7.5 7.5 11.3056 7.5 16H8.5ZM16 23.5C11.8579 23.5 8.5 20.1421 8.5 16H7.5C7.5 20.6944 11.3056 24.5 16 24.5V23.5Z" fill="#CCCCCC" mask="url(#path-1-inside-1_529_3016)"/>
</svg>
