<svg width="116" height="20" viewBox="0 0 116 20" fill="none" xmlns="http://www.w3.org/2000/svg">
<path d="M4.53835 15L0.37642 0.454545H3.7358L6.14347 10.5611H6.2642L8.92045 0.454545H11.7969L14.446 10.5824H14.5739L16.9815 0.454545H20.3409L16.179 15H13.1818L10.4119 5.49006H10.2983L7.53551 15H4.53835ZM24.9556 8.69318V15H21.93V0.454545H24.8704V6.01562H24.9982C25.2444 5.37169 25.6422 4.86742 26.1914 4.50284C26.7406 4.13352 27.4296 3.94886 28.2582 3.94886C29.0157 3.94886 29.6763 4.11458 30.2397 4.44602C30.8079 4.77273 31.2482 5.24384 31.5607 5.85938C31.878 6.47017 32.0342 7.2017 32.0295 8.05398V15H29.0039V8.59375C29.0086 7.9214 28.8382 7.3982 28.4925 7.02415C28.1516 6.65009 27.6734 6.46307 27.0579 6.46307C26.646 6.46307 26.2814 6.55066 25.9641 6.72585C25.6516 6.90104 25.4054 7.15672 25.2255 7.4929C25.0503 7.82434 24.9603 8.22443 24.9556 8.69318ZM39.3395 15.2131C38.2363 15.2131 37.2822 14.9787 36.4773 14.5099C35.6771 14.0365 35.0592 13.3783 34.6236 12.5355C34.188 11.688 33.9702 10.7055 33.9702 9.58807C33.9702 8.46117 34.188 7.47633 34.6236 6.63352C35.0592 5.78598 35.6771 5.12784 36.4773 4.65909C37.2822 4.18561 38.2363 3.94886 39.3395 3.94886C40.4427 3.94886 41.3944 4.18561 42.1946 4.65909C42.9995 5.12784 43.6198 5.78598 44.0554 6.63352C44.491 7.47633 44.7088 8.46117 44.7088 9.58807C44.7088 10.7055 44.491 11.688 44.0554 12.5355C43.6198 13.3783 42.9995 14.0365 42.1946 14.5099C41.3944 14.9787 40.4427 15.2131 39.3395 15.2131ZM39.3537 12.8693C39.8556 12.8693 40.2746 12.7273 40.6108 12.4432C40.947 12.1544 41.2003 11.7614 41.3707 11.2642C41.5459 10.767 41.6335 10.2012 41.6335 9.56676C41.6335 8.93229 41.5459 8.36648 41.3707 7.86932C41.2003 7.37216 40.947 6.97917 40.6108 6.69034C40.2746 6.40151 39.8556 6.2571 39.3537 6.2571C38.8471 6.2571 38.4209 6.40151 38.0753 6.69034C37.7344 6.97917 37.4763 7.37216 37.3011 7.86932C37.1307 8.36648 37.0455 8.93229 37.0455 9.56676C37.0455 10.2012 37.1307 10.767 37.3011 11.2642C37.4763 11.7614 37.7344 12.1544 38.0753 12.4432C38.4209 12.7273 38.8471 12.8693 39.3537 12.8693ZM51.6051 15.2131C50.5019 15.2131 49.5478 14.9787 48.7429 14.5099C47.9427 14.0365 47.3248 13.3783 46.8892 12.5355C46.4536 11.688 46.2358 10.7055 46.2358 9.58807C46.2358 8.46117 46.4536 7.47633 46.8892 6.63352C47.3248 5.78598 47.9427 5.12784 48.7429 4.65909C49.5478 4.18561 50.5019 3.94886 51.6051 3.94886C52.7083 3.94886 53.66 4.18561 54.4602 4.65909C55.2652 5.12784 55.8854 5.78598 56.321 6.63352C56.7566 7.47633 56.9744 8.46117 56.9744 9.58807C56.9744 10.7055 56.7566 11.688 56.321 12.5355C55.8854 13.3783 55.2652 14.0365 54.4602 14.5099C53.66 14.9787 52.7083 15.2131 51.6051 15.2131ZM51.6193 12.8693C52.1212 12.8693 52.5402 12.7273 52.8764 12.4432C53.2126 12.1544 53.4659 11.7614 53.6364 11.2642C53.8116 10.767 53.8991 10.2012 53.8991 9.56676C53.8991 8.93229 53.8116 8.36648 53.6364 7.86932C53.4659 7.37216 53.2126 6.97917 52.8764 6.69034C52.5402 6.40151 52.1212 6.2571 51.6193 6.2571C51.1127 6.2571 50.6866 6.40151 50.3409 6.69034C50 6.97917 49.742 7.37216 49.5668 7.86932C49.3963 8.36648 49.3111 8.93229 49.3111 9.56676C49.3111 10.2012 49.3963 10.767 49.5668 11.2642C49.742 11.7614 50 12.1544 50.3409 12.4432C50.6866 12.7273 51.1127 12.8693 51.6193 12.8693ZM58.8849 15V13.196L64.2259 6.58381V6.50568H59.0696V4.09091H67.8693V6.05824L62.8551 12.5071V12.5852H68.054V15H58.8849ZM75.0533 0.454545H78.8459L82.8516 10.2273H83.022L87.0277 0.454545H90.8203V15H87.8374V5.53267H87.7166L83.9524 14.929H81.9212L78.157 5.49716H78.0362V15H75.0533V0.454545ZM96.408 15.206C95.712 15.206 95.0917 15.0852 94.5472 14.8438C94.0027 14.5975 93.5719 14.2353 93.2546 13.7571C92.9421 13.2741 92.7859 12.6728 92.7859 11.9531C92.7859 11.3471 92.8971 10.8381 93.1197 10.4261C93.3422 10.0142 93.6452 9.68277 94.0288 9.43182C94.4123 9.18087 94.8479 8.99148 95.3356 8.86364C95.828 8.7358 96.3441 8.64583 96.8839 8.59375C97.5183 8.52746 98.0297 8.46591 98.418 8.40909C98.8062 8.34754 99.088 8.25758 99.2631 8.1392C99.4383 8.02083 99.5259 7.84564 99.5259 7.61364V7.57102C99.5259 7.12121 99.3839 6.7732 99.0998 6.52699C98.8204 6.28078 98.4227 6.15767 97.9066 6.15767C97.3621 6.15767 96.9289 6.27841 96.6069 6.51989C96.2849 6.75663 96.0719 7.05492 95.9677 7.41477L93.1694 7.1875C93.3114 6.52462 93.5908 5.9517 94.0075 5.46875C94.4241 4.98106 94.9615 4.60701 95.6197 4.34659C96.2826 4.08144 97.0496 3.94886 97.9208 3.94886C98.5269 3.94886 99.1069 4.01989 99.6609 4.16193C100.22 4.30398 100.714 4.52415 101.145 4.82244C101.581 5.12074 101.924 5.50426 102.175 5.97301C102.426 6.43703 102.551 6.99337 102.551 7.64205V15H99.6822V13.4872H99.5969C99.4218 13.8281 99.1874 14.1288 98.8938 14.3892C98.6003 14.6449 98.2475 14.8461 97.8356 14.9929C97.4237 15.1349 96.9478 15.206 96.408 15.206ZM97.2745 13.1179C97.7196 13.1179 98.1126 13.0303 98.4535 12.8551C98.7944 12.6752 99.0619 12.4337 99.256 12.1307C99.4502 11.8277 99.5472 11.4844 99.5472 11.1009V9.94318C99.4525 10.0047 99.3223 10.0616 99.1566 10.1136C98.9956 10.161 98.8133 10.206 98.6097 10.2486C98.4061 10.2865 98.2025 10.322 97.9989 10.3551C97.7953 10.3835 97.6107 10.4096 97.445 10.4332C97.0898 10.4853 96.7797 10.5682 96.5146 10.6818C96.2494 10.7955 96.0434 10.9493 95.8967 11.1435C95.7499 11.3329 95.6765 11.5696 95.6765 11.8537C95.6765 12.2656 95.8256 12.5805 96.1239 12.7983C96.427 13.0114 96.8105 13.1179 97.2745 13.1179ZM104.899 19.0909V4.09091H107.882V5.9233H108.017C108.149 5.62973 108.341 5.33144 108.592 5.02841C108.848 4.72064 109.179 4.46496 109.586 4.26136C109.998 4.05303 110.51 3.94886 111.12 3.94886C111.916 3.94886 112.65 4.1572 113.322 4.57386C113.994 4.9858 114.532 5.60843 114.934 6.44176C115.337 7.27036 115.538 8.30966 115.538 9.55966C115.538 10.7765 115.342 11.804 114.949 12.642C114.56 13.4754 114.03 14.1075 113.358 14.5384C112.69 14.9645 111.942 15.1776 111.113 15.1776C110.526 15.1776 110.027 15.0805 109.615 14.8864C109.208 14.6922 108.874 14.4484 108.613 14.1548C108.353 13.8565 108.154 13.5559 108.017 13.2528H107.924V19.0909H104.899ZM107.86 9.54545C107.86 10.1941 107.95 10.7599 108.13 11.2429C108.31 11.7259 108.571 12.1023 108.912 12.3722C109.252 12.6373 109.667 12.7699 110.154 12.7699C110.647 12.7699 111.064 12.6349 111.404 12.3651C111.745 12.0904 112.003 11.7116 112.179 11.2287C112.359 10.741 112.449 10.1799 112.449 9.54545C112.449 8.91572 112.361 8.36174 112.186 7.88352C112.011 7.4053 111.752 7.03125 111.412 6.76136C111.071 6.49148 110.652 6.35653 110.154 6.35653C109.662 6.35653 109.245 6.48674 108.904 6.74716C108.568 7.00758 108.31 7.37689 108.13 7.85511C107.95 8.33333 107.86 8.89678 107.86 9.54545Z" fill="#161616"/>
</svg>
