<svg width="24" height="24" viewBox="0 0 24 24" fill="none" xmlns="http://www.w3.org/2000/svg">
<mask id="mask0_725_7335" style="mask-type:alpha" maskUnits="userSpaceOnUse" x="0" y="0" width="24" height="24">
<rect y="-6.10352e-05" width="24" height="24" fill="#D9D9D9"/>
</mask>
<g mask="url(#mask0_725_7335)">
<path d="M12 19.9999C11.45 19.9999 10.9792 19.8041 10.5875 19.4124C10.1958 19.0208 10 18.5499 10 17.9999C10 17.4499 10.1958 16.9791 10.5875 16.5874C10.9792 16.1958 11.45 15.9999 12 15.9999C12.55 15.9999 13.0208 16.1958 13.4125 16.5874C13.8042 16.9791 14 17.4499 14 17.9999C14 18.5499 13.8042 19.0208 13.4125 19.4124C13.0208 19.8041 12.55 19.9999 12 19.9999ZM12 13.9999C11.45 13.9999 10.9792 13.8041 10.5875 13.4124C10.1958 13.0208 10 12.5499 10 11.9999C10 11.4499 10.1958 10.9791 10.5875 10.5874C10.9792 10.1958 11.45 9.99994 12 9.99994C12.55 9.99994 13.0208 10.1958 13.4125 10.5874C13.8042 10.9791 14 11.4499 14 11.9999C14 12.5499 13.8042 13.0208 13.4125 13.4124C13.0208 13.8041 12.55 13.9999 12 13.9999ZM12 7.99994C11.45 7.99994 10.9792 7.80411 10.5875 7.41244C10.1958 7.02077 10 6.54994 10 5.99994C10 5.44994 10.1958 4.97911 10.5875 4.58744C10.9792 4.19577 11.45 3.99994 12 3.99994C12.55 3.99994 13.0208 4.19577 13.4125 4.58744C13.8042 4.97911 14 5.44994 14 5.99994C14 6.54994 13.8042 7.02077 13.4125 7.41244C13.0208 7.80411 12.55 7.99994 12 7.99994Z" fill="#1C1B1F"/>
</g>
</svg>
