<svg width="34" height="48" viewBox="0 0 40 54" fill="none" xmlns="http://www.w3.org/2000/svg">
<g filter="url(#filter0_d_529_3172)">
<path fill-rule="evenodd" clip-rule="evenodd" d="M21.5849 44.7392C25.6265 38.8708 36 23.1152 36 16C36 7.16344 28.8366 0 20 0C11.1634 0 4 7.16344 4 16C4 23.1152 14.3735 38.8708 18.4151 44.7392C19.1886 45.8624 20.8114 45.8624 21.5849 44.7392ZM20 24C24.4183 24 28 20.4183 28 16C28 11.5817 24.4183 8 20 8C15.5817 8 12 11.5817 12 16C12 20.4183 15.5817 24 20 24Z" fill="#FFE852"/>
</g>
<defs>
<filter id="filter0_d_529_3172" x="0" y="0" width="40" height="53.5815" filterUnits="userSpaceOnUse" color-interpolation-filters="sRGB">
<feFlood flood-opacity="0" result="BackgroundImageFix"/>
<feColorMatrix in="SourceAlpha" type="matrix" values="0 0 0 0 0 0 0 0 0 0 0 0 0 0 0 0 0 0 127 0" result="hardAlpha"/>
<feOffset dy="4"/>
<feGaussianBlur stdDeviation="2"/>
<feComposite in2="hardAlpha" operator="out"/>
<feColorMatrix type="matrix" values="0 0 0 0 0 0 0 0 0 0 0 0 0 0 0 0 0 0 0.25 0"/>
<feBlend mode="normal" in2="BackgroundImageFix" result="effect1_dropShadow_529_3172"/>
<feBlend mode="normal" in="SourceGraphic" in2="effect1_dropShadow_529_3172" result="shape"/>
</filter>
</defs>
</svg>
